# xmcd CD database file
#
# Track frame offsets:
#	182
#	13395
#	26965
#	41207
#	52770
#	66595
#	81725
#	95832
#	107892
#	118820
#	132487
#	145395
#	157737
#	170510
#	184982
#	197392
#	209772
#	222802
#	235485
#	248932
#	262852
#	275090
#	286385
#	300065
#
# Disc length: 4164 seconds
#
# Revision: 5
# Processed by: cddbd v1.5.2PL0 Copyright (c) Steve Scherf et al.
# Submitted via: CDex 1.51
#
DISCID=7b104218
DTITLE=Various Artist - Swing That Music
DYEAR=1995
DGENRE=Jazz
TTITLE0=Jazz Greats No.02A - Louis Armstrong With Jimmy Dorsey and His Orchestra - Swing That Music
TTITLE1=Fletcher Henderson and His Orchestra - Fletcher Henderson and His Orchestra - Down South Camp Meetin'
TTITLE2=Artie Shaw and His Orchestra - Artie Shaw and His Orchestra - Indian Love Call
TTITLE3=Earl Hines and His Orchestra - Earl Hines and His Orchestra - Piano Man
TTITLE4=Fats Waller, His Rhythm and Orchestra - Fats Waller and His Orchestra - The Sheik Of Araby
TTITLE5=Lionel Hampton and His Orchestra - Lionel Hampton and His Orchestra - Ring Dem Bells
TTITLE6=Al Cooper and Savoy Sultans - Al Cooper and The Savoy Sultans - Looney
TTITLE7=Eddie Duchin and His Orchestra - Eddie Duchin and His Orchestra - Between The Devil And The Deep Blue Sea
TTITLE8=Chick Webb and His Orchestra - Chick Webb and His Orchestra - When I Get Low I Get High
TTITLE9=Teddy Hill and His NBC Orchestra - Teddy Hill and His NBC Orchestra - King Porter's Stomp
TTITLE10=Woody Herman and His Orcherstra - Woddy Herman and His Orchestra - Carolina In The Morning
TTITLE11=McKinne's Cotton Pickers - McKinne's Cotton Pickers - You're Driving Me Crazy
TTITLE12=Bennie Molen's Kansas City Orchestra - Bernie Molen's Kansas City Orchestra - Prince Of Wales
TTITLE13=Benny Goodman and His Orchestra - Benny Goodman and His Orchestra - Why Don't You Do Right
TTITLE14=Eddie Cole's Solid Swingers - Eddie Cole's Solid Swingers - Thunder
TTITLE15=Harlan Leonard and His Rockets - Harlan Leonard and His Rockets - My Gal Sal (They Called Her Frivolous Sal)
TTITLE16=Eddie Durham and His Band - Eddie Durham and His Band - Magic Carpet
TTITLE17=Don Redman and His Orchestra - Don Redman and His Orchestra - Shakin' The African
TTITLE18=Mills Blue Rhythm Band - Mills Blue Rhythm Band - Snake Hips
TTITLE19=Cab Calloway and His Orchestra - Cab Calloway and His Orchestra - The Man From Harlem
TTITLE20=Louis Jordan and His Tympany five - Louis Jordan and His Tympany Five - Flat Face
TTITLE21=Willie Bryant and His Orchestra - Willie Bryant and His Orchestra - Ride, Red, Ride
TTITLE22=Bob Crosby and His Orchestra - Bob Crosby and His Orchestra - Rose Of Washington Square
TTITLE23=Count Basie and His Orchestra - Count Basie and His Orchestra - Swinging The Blues
EXTD=YEAR: 1995
EXTT0=
EXTT1=
EXTT2=
EXTT3=
EXTT4=
EXTT5=
EXTT6=
EXTT7=
EXTT8=
EXTT9=
EXTT10=
EXTT11=
EXTT12=
EXTT13=
EXTT14=
EXTT15=
EXTT16=
EXTT17=
EXTT18=
EXTT19=
EXTT20=
EXTT21=
EXTT22=
EXTT23=
PLAYORDER=
